<svg width="11" height="12" viewBox="0 0 11 12" fill="none"
     xmlns="http://www.w3.org/2000/svg">
    <path fill-rule="evenodd" clip-rule="evenodd"
          d="M0 1.916C0 1.74881 0.115093 1.61328 0.257068 1.61328H10.5398C10.6818 1.61328 10.7969 1.74881 10.7969 1.916C10.7969 2.08318 10.6818 2.21871 10.5398 2.21871H9.68291V12.0065H1.11396V2.21871H0.257068C0.115093 2.21871 0 2.08318 0 1.916ZM1.6281 2.21871V11.4011H9.16877V2.21871H1.6281Z"
          fill="black"/>
    <path fill-rule="evenodd" clip-rule="evenodd"
          d="M5.40453 3.02734C5.5465 3.02734 5.6616 3.16287 5.6616 3.33006V10.2925C5.6616 10.4597 5.5465 10.5952 5.40453 10.5952C5.26255 10.5952 5.14746 10.4597 5.14746 10.2925V3.33006C5.14746 3.16287 5.26255 3.02734 5.40453 3.02734Z"
          fill="black"/>
    <path fill-rule="evenodd" clip-rule="evenodd"
          d="M7.62426 3.02734C7.76623 3.02734 7.88132 3.16287 7.88132 3.33006V10.2925C7.88132 10.4597 7.76623 10.5952 7.62426 10.5952C7.48228 10.5952 7.36719 10.4597 7.36719 10.2925V3.33006C7.36719 3.16287 7.48228 3.02734 7.62426 3.02734Z"
          fill="black"/>
    <path fill-rule="evenodd" clip-rule="evenodd"
          d="M3.17113 3.02734C3.31311 3.02734 3.4282 3.16287 3.4282 3.33006V10.2925C3.4282 10.4597 3.31311 10.5952 3.17113 10.5952C3.02916 10.5952 2.91406 10.4597 2.91406 10.2925V3.33006C2.91406 3.16287 3.02916 3.02734 3.17113 3.02734Z"
          fill="black"/>
    <path fill-rule="evenodd" clip-rule="evenodd"
          d="M4.39875 1.10128C4.20228 1.38053 4.12245 1.72031 4.11027 1.93719C4.10089 2.10401 3.97845 2.2303 3.83678 2.21926C3.69512 2.20822 3.58788 2.06403 3.59725 1.89721C3.61531 1.57594 3.72602 1.10847 4.00285 0.715016C4.28797 0.309784 4.73836 0 5.39617 0C6.05397 0 6.50437 0.309784 6.78949 0.715016C7.06632 1.10847 7.17703 1.57594 7.19509 1.89721C7.20446 2.06403 7.09722 2.20822 6.95555 2.21926C6.81389 2.2303 6.69145 2.10401 6.68207 1.93719C6.66988 1.72031 6.59006 1.38053 6.39358 1.10128C6.20539 0.83381 5.89971 0.605432 5.39617 0.605432C4.89263 0.605432 4.58694 0.83381 4.39875 1.10128Z"
          fill="black"/>
</svg>
